<?xml version="1.0" encoding="utf-8"?>
<!-- Generator: Adobe Illustrator 25.0.0, SVG Export Plug-In . SVG Version: 6.00 Build 0)  -->
<svg version="1.1" id="Camada_1" xmlns="http://www.w3.org/2000/svg" xmlns:xlink="http://www.w3.org/1999/xlink" x="0px" y="0px"
	 viewBox="0 0 340.16 340.16" style="enable-background:new 0 0 340.16 340.16;" xml:space="preserve">
<g>
	<g>
		<path d="M147.66,173.2c0.21-2.4,0.42-4.54,0.57-6.68c0.05-0.71,0.12-1.54-0.59-1.95c-0.78-0.44-1.5,0.07-2.1,0.53
			c-3.09,2.41-6.54,2.62-10.21,1.84c-2.6-0.56-5.17-1.41-7.91-1.06c-2.35,0.3-4.44,1.18-6.14,2.82c-0.65,0.63-1.13,0.6-1.68,0.03
			c-2.94-2.99-6.78-3.96-10.69-4.8c-2.15-0.46-4.29-0.96-6.32-1.85c-1.5-0.66-2.88-1.47-3.85-2.87c-0.7-1.01-1.64-0.93-2.21,0.18
			c-0.28,0.54-0.48,1.17-0.52,1.77c-0.15,2.27-1.26,4.07-2.66,5.75c-1.44,1.73-2.83,3.5-3.41,5.75c-0.19,0.73-0.63,0.75-1.19,0.5
			c-4.23-1.87-8.27-1.26-12.29,0.73c-1.98,0.98-4.11,1.19-6.26,0.38c-0.62-0.23-1.37-0.47-1.88,0.14c-0.58,0.71-0.07,1.45,0.37,1.94
			c2.52,2.82,1.9,6.51,2.81,9.77c0.18,0.65-0.5,0.74-0.88,0.95c-2.41,1.37-4.86,2.68-7.25,4.07c-1.27,0.74-1.37,1.23-0.14,1.94
			c4.05,2.34,6.42,6.01,8.48,10.02c0.76,1.49,1.81,2.82,3.17,3.85c0.49,0.37,0.51,0.72,0.2,1.21c-3.2,5.18-2.59,10.4-0.04,15.58
			c1.05,2.14,2.25,4.22,3.44,6.29c1.29,2.25,2.06,4.61,1.93,7.23c-0.04,0.85,0.01,1.73,0.15,2.57c0.3,1.77,0.96,2.1,2.41,1.04
			c2.68-1.97,5.68-2.61,8.92-2.53c1.72,0.04,3.44,0.01,5.16,0.07c3.29,0.13,6.39-0.4,9.1-2.4c0.97-0.71,1.47-0.64,2.14,0.54
			c2.63,4.66,6.96,6.42,12.07,6.71c2.24,0.13,4.47,0.36,6.72,0.48c3.72,0.19,6.51,2.28,9.25,4.46c0.64,0.51,1.21,1.22,2.11,0.93
			c0.97-0.31,0.98-1.27,0.96-2.05c-0.12-4.18,1.65-7.68,3.85-11.05c1.19-1.83,1.86-3.87,2.18-6.02c0.18-1.23,0.65-1.82,2.11-1.51
			c2.91,0.63,5.43-0.47,7.41-2.53c2.83-2.94,6.14-4.6,10.23-4.79c1.11-0.05,2.58-0.04,2.96-1.29c0.34-1.11-0.9-1.8-1.65-2.47
			c-1.5-1.32-2.38-2.98-2.97-4.82c-0.99-3.05-2.09-6.05-3.62-8.88c-0.36-0.66-0.39-1.2,0.09-1.83c1.6-2.08,2.49-4.51,3.22-7
			c0.79-2.7,2.12-4.96,4.56-6.54c1.48-0.95,1.35-2.03-0.35-2.47c-4.06-1.05-7.34-3.37-10.57-5.87c-2.19-1.69-4.63-2.88-7.43-3.15
			c-0.83-0.08-1.21-0.51-1.35-1.22C147.87,174.75,147.76,173.85,147.66,173.2z M119.85,217.2c0.49-0.11,0.69,0.14,0.93,0.29
			c2.67,1.65,5.5,2.36,8.63,1.67c1.58-0.35,2.88-1.25,4.24-2.04c0.77-0.45,1.52-0.99,2.53-0.71c4.91,1.37,8.16,6.4,7.52,11.47
			c-0.35,2.77-1.37,5.24-2.7,7.64c-1.53,2.76-3.15,5.48-3.71,8.65c-0.31,1.75-0.33,1.82-1.78,0.73c-2.59-1.94-5.43-3.18-8.68-3.4
			c-2.05-0.14-4.1-0.25-6.15-0.42c-3.49-0.29-6.87-0.91-9.26-3.83c-2.28-2.78-2.89-6.17-3.34-9.6c-0.2-1.57,0.39-2.58,1.94-3.01
			c3.23-0.91,5.87-2.7,7.89-5.39c0.37-0.49,0.67-0.63,0.99,0.1c1.17,2.65,3.08,4.72,5.32,6.47c4.15,3.23,7.09,7.19,7.91,12.51
			c0.01,0.09,0.19,0.16,0.35,0.28c0.43-0.68,0.24-1.34,0.15-1.97c-0.6-4.36-2.68-7.91-5.99-10.77c-1.7-1.47-3.38-2.97-4.84-4.68
			C120.82,220.03,120.01,218.77,119.85,217.2z M87.1,229.58c0.25,0,0.28-0.21,0.33-0.38c1.12-3.54,3.67-5.72,6.9-7.25
			c0.56-0.27,1.11-0.51,1.76-0.13c2.71,1.58,5.63,2.62,8.69,3.23c1.12,0.22,1.55,0.84,1.44,1.91c-0.16,1.59-0.04,3.16,0.37,4.69
			c0.2,0.77-0.02,1.28-0.57,1.77c-1.55,1.37-3.35,2.17-5.38,2.52c-3,0.51-6.01,0.27-9.02,0.25c-2.67-0.02-5.27,0.31-7.66,1.53
			c-1.16,0.59-1.62,0.22-1.63-0.89c-0.02-3.89-1.75-7.2-3.54-10.48c-1.19-2.18-2.42-4.34-3.16-6.74c-1.04-3.37-0.67-6.61,0.77-9.77
			c0.3-0.65,0.68-1.23,1.52-0.73c1.92,1.13,4.02,1.5,6.2,1.48c1.44-0.01,2.37,0.46,2.83,1.97c0.3,0.97,1.02,1.83,1.62,2.69
			c1.39,2,3.1,3.71,5.06,5.2C88.21,224.06,86.39,226.61,87.1,229.58z M102.07,209.37c1.93-0.6,3.56-1.13,5.23-0.71
			c3.18,0.81,6.15,2.11,8.76,4.13c1.67,1.29,1.88,2.96,0.61,4.64c-2.04,2.71-4.66,4.61-7.96,5.54c-1.33,0.37-2.64,0.39-3.96,0
			c-3.22-0.95-6.31-2.23-9.17-3.99c-2.48-1.53-4.5-3.52-6-6.04c-1.92-3.23-2.75-6.92-4.39-10.27c-0.23-0.48-0.13-0.82,0.37-1.04
			c4.3-1.89,8.68-3.03,13.32-1.31c4.21,1.56,7.86,4.11,11.46,6.73c0.08,0.06,0.09,0.23,0.14,0.36
			C104.98,207.22,103.61,207.5,102.07,209.37z M147.27,185.04c0.15,4.87-1.56,8.94-4.58,12.47c-1.88,2.19-4.83,2.71-7.21,1.57
			c-1.04-0.5-1.07-0.97-0.44-1.84c2.02-2.75,2.46-5.83,1.78-9.13c-0.73-3.56-0.99-3.72-4.27-2.11c-0.93,0.46-1.32,0.36-1.59-0.69
			c-0.67-2.64-1.38-5.27-1.65-7.99c-0.1-1-0.41-1.23-1.35-0.89c-1.08,0.38-2.2,0.68-3.19,1.25c-0.77,0.45-1,0.13-1.13-0.57
			c-0.28-1.45-0.37-2.97-1.06-4.3c-0.74-1.41-0.24-2.33,0.88-3.19c2.23-1.72,4.78-1.84,7.38-1.38c4.81,0.85,9.61,2.66,14.32-0.36
			c0.62-0.4,0.96-0.14,0.78,0.68c-0.65,2.91-0.23,5.79,0.32,8.67C146.76,179.85,147.33,182.48,147.27,185.04z M153.28,211.33
			c-1.13-1.14-2.38-1.36-3.45-1.89c-1.11-0.55-2.48-0.74-3.25-1.73c-0.95-1.21-2.18-1.98-3.42-2.79c-0.92-0.6-1.84-1.21-2.69-1.89
			c-0.88-0.7-0.82-1.32,0.3-1.74c1.36-0.51,2.74-1.11,3.51-2.37c1.27-2.08,2.94-2.03,4.96-1.43c5.18,1.55,8.14,5.25,10.05,10.06
			c1.42,3.59,2.41,7.37,4.68,10.59c0.51,0.72-0.05,0.77-0.55,0.86c-1.36,0.25-2.72,0.51-4.01,1.06c-2.03,0.86-3.55,2.39-5.14,3.84
			c-1.82,1.66-3.84,2.78-6.46,2.48c-1.37-0.16-1.97-0.78-2.3-2.07c-0.37-1.46-0.44-2.98-1.35-4.34c-1.39-2.08-2.97-3.85-5.33-4.82
			c-1.25-0.51-1.01-1.1-0.09-1.79c1.53-1.16,3.27-1.97,4.9-2.96c1.87-1.14,3.65-1.07,5.59-0.31
			C150.42,210.56,151.63,211.13,153.28,211.33z M90.58,179.02c0.3-3.24,1.44-6.83,3.78-9.99c1.4-1.88,2.8-3.75,3.4-6.08
			c0.23-0.9,0.69-0.98,1.44-0.41c1.78,1.35,3.85,2.09,5.98,2.66c2.58,0.69,5.21,1.21,7.75,2.04c4.43,1.45,7.84,3.96,8.43,9.05
			c0.29,2.51,0.3,2.46-2.16,2.58c-3.48,0.16-6.88,0.58-9.49,3.27c-0.54,0.56-1.06,0.28-1.54-0.05c-2.47-1.7-4.98-3.37-4.44-6.98
			c0.01-0.09,0-0.19-0.01-0.29c-0.09-0.73-0.48-0.93-1.07-0.51c-0.42,0.3-0.82,0.68-1.11,1.1c-1.3,1.85-2.88,3.44-4.46,5.03
			c-1.04,1.05-2.04,2.16-2.64,3.54c-0.36,0.83-0.77,0.77-1.42,0.37C91.25,183.29,90.52,181.69,90.58,179.02z M90.47,197.61
			c-2.87,0.74-5.14,2.02-7.72,2.42c-1.59,0.25-1.8,0.74-0.79,2.04c0.97,1.24,2.07,2.38,2.32,4.03c0.11,0.75,1.05,1.59,0.59,2.08
			c-0.61,0.65-1.71,0.21-2.59,0.05c-4.37-0.77-7.17-3.58-9.3-7.23c-1.71-2.94-3.37-5.9-6.17-8c-0.76-0.57-0.56-1.11,0.2-1.54
			c0.88-0.49,1.75-0.98,2.63-1.47c3.96-2.22,7.91-4.45,12.39-5.54c3.82-0.92,7.28-0.3,10.43,2.09c0.52,0.39,0.79,0.7,0.53,1.4
			c-0.95,2.57-0.45,5.08,0.43,7.56c0.17,0.5,0.89,1.06,0.36,1.5c-0.52,0.43-1.14-0.2-1.69-0.47c-0.13-0.06-0.24-0.15-0.37-0.22
			c-2.78-1.46-5.69-2.49-8.83-2.78c-0.77-0.07-1.65-0.31-2.55,0.54C83.92,194.71,87.13,195.74,90.47,197.61z M124.56,205.39
			c2.63-1.78,5.16-3.38,7.83-4.75c0.49-0.26,1.02-0.19,1.52,0.05c1.25,0.59,2.48,1.21,3.55,2.13c2.05,1.76,3.8,3.88,6.5,5.22
			c-2.6,0.99-4.61,2.45-6.6,3.92c-2.15,1.59-4.23,3.29-6.7,4.38c-3.48,1.52-6.63,1.03-9.62-1.36c-2.21-1.77-3.8-4.17-6.21-5.71
			c-0.5-0.32-0.84-0.9-0.79-1.65c2.07-0.04,4.09-0.34,6.12-0.63c2.68-0.38,5.35-0.55,7.7,1.21c0.13,0.1,0.34,0.19,0.52-0.13
			C127.39,206.92,126.1,206.16,124.56,205.39z M149.25,189.45c0.14-3.01,0.42-5.79-0.11-8.58c-0.3-1.55,0.25-1.94,1.76-1.42
			c1.87,0.64,3.54,1.67,5.17,2.77c2.65,1.78,5.12,3.88,8.2,4.95c0.82,0.29,0.62,0.65,0.16,1.12c-1.22,1.26-2,2.78-2.66,4.39
			c-0.96,2.34-1.61,4.8-2.88,7.02c-0.57,0.99-0.99,1.2-1.85,0.3c-2.4-2.5-5.19-4.34-8.68-4.92c-1.07-0.18-1.05-0.78-0.63-1.55
			c0.92-1.65,2.18-3.01,3.61-4.22c1.35-1.13,2.84-2.02,4.47-2.71C153.19,186.31,151.36,187.92,149.25,189.45z M102.79,192.84
			c-0.59,1.49-0.24,2.76,0.21,3.99c0.45,1.23,1.02,2.41,1.62,3.8c-2.57-1.1-4.95-2.06-7.27-3.14c-1.08-0.51-1.67-1.55-2.02-2.68
			c-1.95-6.28,1.5-11.77,5.86-15.7c0.38-0.34,0.75-0.33,1.05,0.19c1.16,2.01,3.01,3.3,4.86,4.58c0.67,0.47,0.71,0.83,0.31,1.51
			c-1.16,1.95-1.52,4.07-1.25,6.34c0.3,2.51,1.29,4.77,2.38,7.01c0.83,1.7,1.7,3.39,1.93,5.6c-1.6-0.87-2.44-2.13-3.27-3.37
			c-0.85-1.27-1.69-2.55-2.4-3.9C104.1,195.75,103.72,194.27,102.79,192.84z M111.3,199.44c-1.15-1.36-2.39-4.38-2.86-6.89
			c-1.09-5.81,2.61-10.76,8.48-11.34c3.12-0.31,6.34-0.04,9.19-1.76c0.43-0.26,1.07-0.4,1.28,0.36c0.59,2.16,1.23,4.32,1.68,6.51
			c0.38,1.87-0.42,3.01-2.29,3.53c-1.24,0.35-2.51,0.62-3.78,0.81c-0.91,0.14-1.89,1.18-2.6,0.54c-0.67-0.61-0.51-1.87-0.62-2.87
			c-0.35-3.06-0.33-3-3.07-1.39c-2.89,1.7-4.49,4.12-4.41,7.49C112.34,196.16,111.95,197.74,111.3,199.44z M117.79,201.89
			c0.26-1.01,0.54-2.01,0.77-3.02c0.85-3.73,2.89-6.09,6.94-6.5c1.96-0.2,3.81-1.05,5.1-2.66c0.85-1.05,2.02-1.39,3.18-1.8
			c0.7-0.25,0.98-0.02,1.14,0.75c0.6,3.02-0.08,5.77-1.99,8.07c-3.33,4.03-7.85,6.27-12.71,7.9c-0.5,0.17-1.05,0.44-1.75,0.21
			c0.83-1.77,2.09-3.11,3.52-4.3c1.14-0.95,2.34-1.81,3.48-2.75c0.56-0.46,0.91-1.18,0.52-1.78c-0.46-0.7-1.13-0.12-1.63,0.18
			c-0.69,0.42-1.34,0.91-1.98,1.42C120.77,198.87,119.37,200.36,117.79,201.89z M75.15,178.14c0.23,0.84,0.8,1.12,1.25,1.5
			c0.84,0.71,1.85,1.18,2.58,2.04c1.01,1.19,1.03,1.13-0.38,1.63c-1.3,0.46-2.64,0.9-3.85,1.55c-1,0.53-1.21,0.17-1.42-0.7
			c-0.49-2.09-0.58-4.26-1.37-6.29c-0.33-0.82,0.24-1.03,0.86-1.07c2.23-0.15,4.29-0.93,6.33-1.76c3.12-1.26,6.14-1.02,9.16,0.34
			c0.65,0.29,0.85,0.6,0.66,1.3c-0.37,1.34-0.57,2.71-0.32,4.11c0.18,1-0.28,1.33-1.19,1.19c-1.48-0.24-2.97-0.33-4.41,0.09
			c-1.09,0.32-1.85,0-2.54-0.78C79.11,179.69,77.28,178.87,75.15,178.14z M113.02,203.38c0.03-0.25,0.07-0.49,0.09-0.73
			c0.39-3.56,1.55-6.98,1.84-10.56c0.07-0.89,0.46-1.66,1.26-2.14c0.44-0.26,0.87-0.74,1.42-0.48c0.51,0.24,0.36,0.85,0.37,1.3
			c0.04,4.87-1.92,9.3-3.1,13.9c-0.11,0.42-0.46,0.58-0.9,0.54c-0.44-0.05-0.69-0.31-0.78-0.72
			C113.13,204.12,113.08,203.75,113.02,203.38z"/>
		<g>
			<path d="M69.53,195.68c-9.59,0.92-19.49-0.18-26.83-5.92c-6.15-4.91-8.96-13.03-8.31-20.7c3.89-36.3,57.91-81.49,89.54-96.21
				c11.59-5.26,24.54-10.35,37.47-7.79c5.21,1.04,10.38,4.3,12.17,9.53c4.47,13.53-4.9,28.11-16.52,34.64
				c-3.79,2.35-0.06,7.88,3.58,5.09c7.3-5.98,13.29-13.72,15.98-22.9c1.58-5.29,2.05-11.2,0.38-16.6
				c-4.39-14.96-23.18-15.3-35.64-12.02c-39.89,10.39-93.05,52.61-109.23,90.81c-4.08,9.8-5.83,21.89-0.25,31.53
				c2.79,5.06,7.38,9.12,12.62,11.34c8.43,3.44,17.77,3.41,26.89,1.87C70.82,197.43,70.22,196.52,69.53,195.68z"/>
			<path d="M119.21,178.88c-0.16,0.01-0.32,0.02-0.48,0.03c-3.75,1.86-7.51,3.63-11.27,5.27c0.31,0.34,0.27,0.68-0.04,1.2
				c-0.3,0.5-0.54,1.02-0.73,1.55c0.98-0.43,1.96-0.86,2.93-1.31c1.47-2.41,4.06-4.08,7.31-4.4c0.67-0.07,1.34-0.1,2.01-0.14
				c2.77-1.42,5.51-2.87,8.23-4.37c-0.82,0.27-1.64,0.54-2.38,0.98c-0.77,0.45-1,0.13-1.13-0.57c-0.04-0.22-0.07-0.43-0.11-0.65
				c-0.68,0.36-1.36,0.73-2.05,1.08C121.55,178.77,121.16,178.79,119.21,178.88z"/>
			<path d="M178.59,138.18c-11.81,11.12-26.54,21.87-42.23,31.14c1.03,0.16,2.06,0.25,3.09,0.24c14.3-8.76,28.29-18.32,40.45-30.02
				C180.88,138.67,179.4,137.34,178.59,138.18z"/>
			<path d="M94.95,189.23c-0.81,0.3-1.61,0.58-2.42,0.87c-0.07,0.83-0.03,1.66,0.11,2.48c0.73-0.26,1.45-0.53,2.17-0.8
				C94.76,190.91,94.81,190.06,94.95,189.23z"/>
			<path d="M82.9,193.56c-0.33-0.03-0.67-0.09-1.03-0.08c-0.33,0.08-0.66,0.16-0.99,0.25c-0.18,0.09-0.35,0.21-0.53,0.38
				c1.52,0.26,2.97,0.62,4.39,1.06c0.81-0.24,1.61-0.49,2.4-0.73C85.76,194,84.35,193.69,82.9,193.56z"/>
		</g>
		<g>
			<path d="M150.02,196.87c1.34,0.12,2.66,0.29,3.96,0.5c-1.57-1.07-3.32-1.85-5.29-2.23C148.63,195.93,149.02,196.73,150.02,196.87
				z"/>
			<path d="M306.46,125.9c-1.17-0.31-4.82-1.17-5.67-1.32c-5.52-1.09-11.04-1.79-16.55-2.49c-10.41-1.4-37.85-3.65-67.15-3.26
				c0-0.31,0.08-0.54,0.08-0.85c0.39-4.2-5.83-4.66-6.14-0.54c-0.08,0.54-0.23,1.01-0.31,1.48c-46.94,1.25-95.75,9.88-84.79,40.11
				c0.7,2.1,3.81,0.85,2.95-1.09c-2.25-4.51-2.8-9.95-0.39-14.38c10.49-18.27,51.37-21.61,81.29-21.69
				c-0.31,1.09-0.78,2.1-1.16,3.11c-3.19,8.24-6.99,16.24-10.72,24.17c-6.84,14.61-14.38,30-21.45,44.92
				c-5.61-0.11-10.82-0.21-15.1-0.28c-0.59,1.59-1.14,3.21-1.87,4.75c4.49,1.22,8.65,3.03,12.23,5.49
				c-0.16,0.39-0.39,0.85-0.54,1.25c-7.46,16.16-15.39,32.41-20.82,49.43c-1.56,5.83-5.52,17.88-0.08,22.7
				c2.1,1.79,4.74,2.17,7.85,0.93c5.83-2.33,12.05-10.26,15-14.46c7.07-10.11,11.97-21.76,12.9-34.2
				c0.7-10.73-3.03-18.88-9.25-24.79c1.16-2.56,2.41-5.13,3.57-7.77c23.16,0.16,49.2,0.39,49.2,0.39c0.7,0,1.24-0.54,1.24-1.25
				c0-0.7-0.54-1.24-1.24-1.24c0,0-25.65-0.47-47.72-0.85c6.84-14.38,14.14-28.91,20.9-42.67c3.89-8.01,7.85-16.01,11.42-24.17
				c0.7-1.79,1.47-3.58,2.1-5.37c6.68,0.08,12.51,0.31,17.1,0.54c22.93,1.48,46.17,3.19,68.55,8.47c1.79,0.47,3.81,1.01,5.28,1.79
				c1.55,0.86,3.58,0.23,4.35-1.4C312.83,127.92,309.57,126.68,306.46,125.9z M163.85,197.02c3.11,0,6.37,0,11.11,0.08
				c-0.7,1.56-1.48,3.11-2.18,4.59C170.07,199.82,167.04,198.27,163.85,197.02z M183.51,229.51c-1.71,23.39-25.64,49.97-28.99,43.29
				c-3.96-8.55,13.05-46.94,17.41-57.44c1.24-2.64,2.41-5.36,3.73-8.16C181.1,212.56,184.29,219.95,183.51,229.51z"/>
		</g>
	</g>
</g>
</svg>
